<mxfile host="app.diagrams.net" modified="2023-02-09T03:36:48.934Z" agent="5.0 (Windows NT 10.0; Win64; x64) AppleWebKit/537.36 (KHTML, like Gecko) Chrome/109.0.0.0 Safari/537.36" etag="NZR9hBUCxtJnyY81I4gl" version="20.8.16" type="github">
  <diagram id="prtHgNgQTEPvFCAcTncT" name="Page-1">
    <mxGraphModel dx="1195" dy="657" grid="1" gridSize="10" guides="1" tooltips="1" connect="1" arrows="1" fold="1" page="1" pageScale="1" pageWidth="827" pageHeight="1169" math="0" shadow="0">
      <root>
        <mxCell id="0" />
        <mxCell id="1" parent="0" />
        <mxCell id="H0oqL-mCHYNjnVL8RLHN-14" value="MRS" style="swimlane;childLayout=stackLayout;resizeParent=1;resizeParentMax=0;startSize=20;html=1;" vertex="1" parent="1">
          <mxGeometry x="40" y="40" width="450" height="570" as="geometry" />
        </mxCell>
        <mxCell id="H0oqL-mCHYNjnVL8RLHN-15" value="CHECKER" style="swimlane;startSize=20;html=1;" vertex="1" parent="H0oqL-mCHYNjnVL8RLHN-14">
          <mxGeometry y="20" width="240" height="550" as="geometry" />
        </mxCell>
        <mxCell id="H0oqL-mCHYNjnVL8RLHN-18" value="Start" style="html=1;dashed=0;whitespace=wrap;shape=mxgraph.dfd.start" vertex="1" parent="H0oqL-mCHYNjnVL8RLHN-15">
          <mxGeometry x="95" y="40" width="60" height="20" as="geometry" />
        </mxCell>
        <mxCell id="H0oqL-mCHYNjnVL8RLHN-20" value="Create R.A via MMS" style="html=1;dashed=0;whitespace=wrap;" vertex="1" parent="H0oqL-mCHYNjnVL8RLHN-15">
          <mxGeometry x="65" y="80" width="120" height="30" as="geometry" />
        </mxCell>
        <mxCell id="H0oqL-mCHYNjnVL8RLHN-21" value="Scan P.O. # via QR Code" style="html=1;dashed=0;whitespace=wrap;" vertex="1" parent="H0oqL-mCHYNjnVL8RLHN-15">
          <mxGeometry x="50" y="130" width="150" height="30" as="geometry" />
        </mxCell>
        <mxCell id="H0oqL-mCHYNjnVL8RLHN-22" value="Found R.A ?" style="shape=rhombus;html=1;dashed=0;whitespace=wrap;perimeter=rhombusPerimeter;" vertex="1" parent="H0oqL-mCHYNjnVL8RLHN-15">
          <mxGeometry x="65" y="180" width="120" height="50" as="geometry" />
        </mxCell>
        <mxCell id="H0oqL-mCHYNjnVL8RLHN-23" value="View P.O. Details" style="shape=display;whiteSpace=wrap;html=1;" vertex="1" parent="H0oqL-mCHYNjnVL8RLHN-15">
          <mxGeometry x="60" y="250" width="125" height="40" as="geometry" />
        </mxCell>
        <mxCell id="H0oqL-mCHYNjnVL8RLHN-16" value="SUPERVISOR" style="swimlane;startSize=20;html=1;" vertex="1" parent="H0oqL-mCHYNjnVL8RLHN-14">
          <mxGeometry x="240" y="20" width="90" height="550" as="geometry" />
        </mxCell>
        <mxCell id="H0oqL-mCHYNjnVL8RLHN-17" value="ENCODER" style="swimlane;startSize=20;html=1;" vertex="1" parent="H0oqL-mCHYNjnVL8RLHN-14">
          <mxGeometry x="330" y="20" width="120" height="550" as="geometry" />
        </mxCell>
      </root>
    </mxGraphModel>
  </diagram>
</mxfile>
